<?xml version="1.0" encoding="utf-8"?>
<!-- Generator: Adobe Illustrator 22.0.1, SVG Export Plug-In . SVG Version: 6.00 Build 0)  -->
<svg version="1.1" id="Layer_1" xmlns="http://www.w3.org/2000/svg" xmlns:xlink="http://www.w3.org/1999/xlink" x="0px" y="0px"
	 viewBox="-11.5 1012.5 1024 1024" style="enable-background:new -11.5 1012.5 1024 1024;" xml:space="preserve">
<style type="text/css">
	.st0{fill:#FFFFFF;}
</style>
<g>
	<path class="st0" d="M846.4,1482.8c0-102.3-83.3-185.6-185.6-185.6c-84.1,0-155,56.4-177.6,133.3c-30.3-13.3-63.6-20.9-98.8-20.9
		c-117.6,0-216.1,82.9-240.5,193.3c-86,1.8-155.5,72.2-155.5,158.7c0,87.6,71.3,158.9,158.9,158.9h474.1
		c87.6,0,158.9-71.3,158.9-158.9c0-42.5-16.9-81.1-44.2-109.6C801,1623.2,846.4,1558.3,846.4,1482.8z M621.5,1868.5H147.4
		c-58.9,0-106.8-47.9-106.8-106.8c0-55.7,43-101.6,97.5-106.3c0,0.2,0,0.4,0,0.6v11.9v20.6v5.5c0,14.4,11.7,26,26,26
		c14.4,0,26-11.7,26-26v-4.6V1668V1656c0-107.1,87.1-194.3,194.2-194.3c107.1,0,194.2,87.1,194.2,194.3v11c0,0,0.1,0,0.1,0
		c0,0.3-0.1,0.6-0.1,1v26c0,14.4,11.7,26,26,26c14.4,0,26-11.7,26-26v-17.9v-8.2V1656c0-0.2,0-0.4,0-0.6
		c54.6,4.7,97.5,50.5,97.5,106.3C728.3,1820.6,680.4,1868.5,621.5,1868.5z M680.8,1614.6c-17.3-7-36.2-11.2-55.9-11.6
		c-13.1-59.3-47.7-110.5-95.1-145.4c11.8-61.6,66-108.3,131-108.3c73.6,0,133.5,59.9,133.5,133.5
		C794.3,1549.6,745,1604.9,680.8,1614.6z"/>
	<path class="st0" d="M660.9,1259.2c14.4,0,26-11.7,26-26v-76c0-14.4-11.7-26-26-26c-14.4,0-26,11.7-26,26v76
		C634.8,1247.6,646.5,1259.2,660.9,1259.2z"/>
	<path class="st0" d="M986.5,1456.8h-76c-14.4,0-26,11.7-26,26c0,14.4,11.7,26,26,26h76c14.4,0,26-11.7,26-26
		C1012.5,1468.4,1000.8,1456.8,986.5,1456.8z"/>
	<path class="st0" d="M855.8,1324.7l53.7-53.7c10.2-10.2,10.1-26.7,0-36.8c-10.2-10.2-26.7-10.2-36.8,0l-53.7,53.7
		c-10.2,10.2-10.2,26.7,0,36.8C829.1,1334.9,845.6,1334.9,855.8,1324.7z"/>
	<path class="st0" d="M855.8,1640.9c-10.2-10.2-26.7-10.2-36.9,0c-10.1,10.2-10.1,26.7,0,36.8l53.7,53.7c10.2,10.2,26.7,10.2,36.8,0
		c10.2-10.2,10.2-26.7,0-36.8L855.8,1640.9z"/>
	<path class="st0" d="M466,1324.7c10.2,10.2,26.7,10.2,36.8,0c10.2-10.2,10.2-26.7,0-36.8l-53.7-53.7c-10.2-10.2-26.7-10.2-36.8,0
		c-10.2,10.2-10.2,26.7,0,36.8L466,1324.7z"/>
</g>
</svg>
