<?xml version="1.0" encoding="utf-8"?>
<!-- Generator: Adobe Illustrator 22.0.1, SVG Export Plug-In . SVG Version: 6.00 Build 0)  -->
<svg version="1.1" id="Layer_1" xmlns="http://www.w3.org/2000/svg" xmlns:xlink="http://www.w3.org/1999/xlink" x="0px" y="0px"
	 viewBox="-11.5 1012.5 1024 1024" style="enable-background:new -11.5 1012.5 1024 1024;" xml:space="preserve">
<style type="text/css">
	.st0{fill:#FFFFFF;}
</style>
<g>
	<path class="st0" d="M990.9,1356.4H673.6v-317.3c0-13-8.6-21.6-21.6-21.6H19.5c-13,0-21.6,8.6-21.6,21.6v971.4
		c0,13,8.6,21.6,21.6,21.6h233.1H421h231h338.9c13,0,21.6-8.6,21.6-21.6V1378C1012.5,1365.1,1003.9,1356.4,990.9,1356.4z
		 M41.1,1060.7h589.3V1378v610.9H442.6v-274.2c0-13-8.6-21.6-21.6-21.6H252.6c-13,0-21.6,8.6-21.6,21.6v274.2h-190V1060.7z
		 M274.2,1988.9v-252.6h125.2v252.6H274.2z M969.3,1988.9H844.1v-84.2h-43.2v84.2H673.6v-589.3h295.7V1988.9z"/>
	<rect x="125.3" y="1166.5" class="st0" width="43.2" height="84.2"/>
	<rect x="505.2" y="1166.5" class="st0" width="43.2" height="84.2"/>
	<rect x="315.2" y="1166.5" class="st0" width="43.2" height="84.2"/>
	<rect x="125.3" y="1334.8" class="st0" width="43.2" height="84.2"/>
	<rect x="505.2" y="1334.8" class="st0" width="43.2" height="84.2"/>
	<rect x="315.2" y="1334.8" class="st0" width="43.2" height="84.2"/>
	<rect x="125.3" y="1524.8" class="st0" width="43.2" height="84.2"/>
	<rect x="505.2" y="1524.8" class="st0" width="43.2" height="84.2"/>
	<rect x="736.2" y="1473" class="st0" width="43.2" height="62.6"/>
	<rect x="863.5" y="1473" class="st0" width="43.2" height="62.6"/>
	<rect x="736.2" y="1609" class="st0" width="43.2" height="62.6"/>
	<rect x="863.5" y="1609" class="st0" width="43.2" height="62.6"/>
	<rect x="736.2" y="1747.1" class="st0" width="43.2" height="62.6"/>
	<rect x="863.5" y="1747.1" class="st0" width="43.2" height="62.6"/>
	<rect x="315.2" y="1524.8" class="st0" width="43.2" height="84.2"/>
</g>
</svg>
