<?xml version="1.0" encoding="utf-8"?>
<!-- Generator: Adobe Illustrator 22.0.1, SVG Export Plug-In . SVG Version: 6.00 Build 0)  -->
<svg version="1.1" id="Layer_1" xmlns="http://www.w3.org/2000/svg" xmlns:xlink="http://www.w3.org/1999/xlink" x="0px" y="0px"
	 viewBox="0 0 360 360" style="enable-background:new 0 0 360 360;" xml:space="preserve">
<style type="text/css">
	.st0{fill:#77328B;stroke:#77328B;stroke-width:0.75;stroke-miterlimit:10;}
</style>
<g>
	<path class="st0" d="M282,181.3h-24.6l-2.6,0.9v-27.7c0.4-2.2-1.3-3.9-3.5-4.3c-0.4,0-0.4,0-0.9,0H52.1c-2.6,0-4.3,1.7-4.3,4.3
		v166.3c0,16.9,13.4,30.2,30.2,30.2h146.5c16.9,0,30.2-13.4,30.2-30.2v-24.2H282c16.4-0.4,29.8-13.8,30.2-30.2v-54.9
		C311.8,195.1,298.4,181.8,282,181.3z M246.1,320.9c0,12.1-9.5,21.6-21.6,21.6H78c-12.1,0-21.6-9.5-21.6-21.6v-162h189.7V320.9z
		 M303.6,266.4c-0.4,11.7-9.9,21.2-21.6,21.6h-27.2v-98.9l2.6,0.9H282c11.7,0.4,21.2,9.9,21.6,21.6
		C303.6,211.6,303.6,266.4,303.6,266.4z"/>
	<path class="st0" d="M150.6,119.5c0.4,0,0.4,0,0.9,0c2.6,0,4.3-1.7,4.3-4.3v-102c0-2.6-1.7-4.3-4.3-4.3c-2.2-0.4-3.9,1.3-4.3,3.5
		c0,0.4,0,0.4,0,0.9v102C146.7,117.4,148.5,119.1,150.6,119.5z"/>
	<path class="st0" d="M207.7,104c2.2,0,4.3-2.2,4.3-4.3V40.5c0-2.6-1.7-4.3-4.3-4.3c-2.2-0.4-3.9,1.3-4.3,3.5c0,0.4,0,0.4,0,0.9
		v59.2C203.3,102.3,205.1,104,207.7,104z"/>
	<path class="st0" d="M95.3,104c2.2,0,4.3-2.2,4.3-4.3V40.5c0-2.6-1.7-4.3-4.3-4.3c-2.2-0.4-3.9,1.3-4.3,3.5c0,0.4,0,0.4,0,0.9v59.2
		C91,102.3,92.7,104,95.3,104z"/>
</g>
</svg>
