<?xml version="1.0" encoding="utf-8"?>
<!-- Generator: Adobe Illustrator 22.0.1, SVG Export Plug-In . SVG Version: 6.00 Build 0)  -->
<svg version="1.1" id="Layer_1" xmlns="http://www.w3.org/2000/svg" xmlns:xlink="http://www.w3.org/1999/xlink" x="0px" y="0px"
	 viewBox="0 0 360 360" style="enable-background:new 0 0 360 360;" xml:space="preserve">
<style type="text/css">
	.st0{fill:#77328B;stroke:#77328B;stroke-width:0.15;stroke-miterlimit:10;}
</style>
<g>
	<path class="st0" d="M324.3,11.4H35.7c-3.4,0-6.1,2.7-6.1,6.1v288.6c0,3.4,2.7,6.1,6.1,6.1h30.7v30.3c0,3.4,2.7,6.1,6.1,6.1
		s6.1-2.7,6.1-6.1v-30.3h202.8v30.3c0,3.4,2.7,6.1,6.1,6.1c3.4,0,6.1-2.7,6.1-6.1v-30.3h30.7c3.4,0,6.1-2.7,6.1-6.1V17.5
		C330.4,14.2,327.7,11.4,324.3,11.4z M318.2,300H41.8V23.6h276.4L318.2,300L318.2,300z"/>
	<path class="st0" d="M77.4,270.5h205.2c3.4,0,6.1-2.7,6.1-6.1V231h8.5c3.4,0,6.1-2.7,6.1-6.1s-2.7-6.1-6.1-6.1h-8.5V104.9h8.5
		c3.4,0,6.1-2.7,6.1-6.1c0-3.4-2.7-6.1-6.1-6.1h-8.5V59.2c0-3.4-2.7-6.1-6.1-6.1H77.4c-3.4,0-6.1,2.7-6.1,6.1v205.2
		C71.3,267.8,74,270.5,77.4,270.5z M83.5,65.3h193v27.4h-10.1c-3.4,0-6.1,2.7-6.1,6.1c0,3.4,2.7,6.1,6.1,6.1h10.1v113.9h-10.1
		c-3.4,0-6.1,2.7-6.1,6.1s2.7,6.1,6.1,6.1h10.1v27.4h-193V65.3z"/>
	<path class="st0" d="M216,155.7h-25.3c-2.9-17.5-18.1-30.9-36.4-30.9c-20.4,0-37,16.6-37,37s16.6,37,37,37
		c18.3,0,33.5-13.4,36.4-30.9H216c3.4,0,6.1-2.7,6.1-6.1C222.1,158.5,219.4,155.7,216,155.7z M154.2,186.6
		c-13.7,0-24.8-11.1-24.8-24.8c0-13.7,11.1-24.8,24.8-24.8c11.6,0,21.3,8,24,18.7h-13.6c-3.4,0-6.1,2.7-6.1,6.1
		c0,3.4,2.7,6.1,6.1,6.1h13.6C175.5,178.6,165.8,186.6,154.2,186.6z"/>
</g>
</svg>
