<?xml version="1.0" encoding="utf-8"?>
<!-- Generator: Adobe Illustrator 22.0.1, SVG Export Plug-In . SVG Version: 6.00 Build 0)  -->
<svg version="1.1" id="Layer_1" xmlns="http://www.w3.org/2000/svg" xmlns:xlink="http://www.w3.org/1999/xlink" x="0px" y="0px"
	 viewBox="0 0 360 360" style="enable-background:new 0 0 360 360;" xml:space="preserve">
<style type="text/css">
	.st0{fill:#77328B;stroke:#77328B;stroke-width:11;stroke-miterlimit:10;}
</style>
<path class="st0" d="M326.5,125.6h-17.8c13.4-9.1,22.2-24.5,22.2-41.9c0-27.9-22.7-50.7-50.7-50.7c-27.9,0-50.7,22.7-50.7,50.7
	c0,17.4,8.8,32.7,22.2,41.9h-22.2c-9.7,0-17.6,7.9-17.6,17.6v8.5c-6.1-2.6-12.8-4-19.8-4c-17.6,0-33.2,9.1-42.3,22.8
	c-1.7-8-8.8-14-17.2-14h-24.4c13.4-9.1,22.2-24.5,22.2-41.9c0-27.9-22.7-50.7-50.7-50.7s-50.7,22.7-50.7,50.7
	c0,17.4,8.8,32.7,22.2,41.9H35.7c-9.7,0-17.6,7.9-17.6,17.6v92.5c0,2.4,2,4.4,4.4,4.4c2.4,0,4.4-2,4.4-4.4v-92.5
	c0-4.9,4-8.8,8.8-8.8h97c4.9,0,8.8,4,8.8,8.8v13.2c0,0.9,0.3,1.7,0.8,2.4c-0.5,2.8-0.8,5.7-0.8,8.6c0,17.4,8.8,32.7,22.2,41.9h-22.2
	c-9.7,0-17.6,7.9-17.6,17.6V324c0,2.4,2,4.4,4.4,4.4c2.4,0,4.4-2,4.4-4.4v-66.1c0-4.9,4-8.8,8.8-8.8h97c4.9,0,8.8,4,8.8,8.8V324
	c0,2.4,2,4.4,4.4,4.4c2.4,0,4.4-2,4.4-4.4v-66.1c0-9.7-7.9-17.6-17.6-17.6h-17.8c13.4-9.1,22.2-24.5,22.2-41.9
	c0-17.3-8.8-32.6-22.1-41.8c0,0,0-0.1,0-0.1v-13.2c0-4.9,4-8.8,8.8-8.8h97c4.9,0,8.8,4,8.8,8.8v92.5c0,2.4,2,4.4,4.4,4.4
	c2.4,0,4.4-2,4.4-4.4v-92.5C344.2,133.6,336.2,125.6,326.5,125.6z M37.9,114.6c0-23.1,18.8-41.9,41.9-41.9
	c23.1,0,41.9,18.8,41.9,41.9s-18.8,41.9-41.9,41.9S37.9,137.7,37.9,114.6z M234,198.4c0,23.1-18.8,41.9-41.9,41.9
	c-23.1,0-41.9-18.8-41.9-41.9c0-23.1,18.8-41.9,41.9-41.9C215.2,156.5,234,175.3,234,198.4z M238.4,83.8c0-23.1,18.8-41.9,41.9-41.9
	s41.9,18.8,41.9,41.9s-18.8,41.9-41.9,41.9S238.4,106.9,238.4,83.8z"/>
</svg>
