<?xml version="1.0" encoding="utf-8"?>
<!-- Generator: Adobe Illustrator 22.0.1, SVG Export Plug-In . SVG Version: 6.00 Build 0)  -->
<svg version="1.1" id="Layer_1" xmlns="http://www.w3.org/2000/svg" xmlns:xlink="http://www.w3.org/1999/xlink" x="0px" y="0px"
	 viewBox="0 0 360 360" style="enable-background:new 0 0 360 360;" xml:space="preserve">
<style type="text/css">
	.st0{fill:#77328B;stroke:#77328B;stroke-width:6;stroke-miterlimit:10;}
</style>
<g>
	<path class="st0" d="M92.6,203.2c22.7,0,41.3-18.5,41.3-41.2s-18.5-41.2-41.3-41.2c-22.7,0-41.2,18.5-41.2,41.2
		C51.4,184.7,69.9,203.2,92.6,203.2z M92.6,124.9c20.4,0,37.1,16.6,37.1,37.1c0,20.4-16.6,37.1-37.1,37.1
		c-20.4,0-37.1-16.6-37.1-37.1C55.6,141.5,72.2,124.9,92.6,124.9z"/>
	<path class="st0" d="M343.6,72.1H21v220.6h322.6V72.1z M45.5,288.6l75.5-59.2l76.9,59.2H45.5z M204.8,288.6l-42.5-32.7l65-52
		l100.6,84.7H204.8z M339.4,288.6h-5.1l-107-90.1l-68.5,54.8L121,224.1l-82.2,64.5H25.2V76.3h314.2V288.6z"/>
</g>
</svg>
