<svg id="Layer_1" data-name="Layer 1" xmlns="http://www.w3.org/2000/svg" viewBox="0 0 90 84"><defs><style>.cls-1{fill:#252776;}.cls-1,.cls-2{stroke:#fff;stroke-miterlimit:10;stroke-width:2px;}.cls-2{fill:#fff;}</style></defs><title>02</title><path class="cls-1" d="M12,9a6,6,0,0,0-6,6V65a6,6,0,0,0,6,6H42V81H35a2.07,2.07,0,0,0-2,2v6a2.07,2.07,0,0,0,2,2H65a2.07,2.07,0,0,0,2-2V83a2,2,0,0,0-2-2H58V71H88a6,6,0,0,0,6-6V15a6,6,0,0,0-6-6Zm0,4H88a2,2,0,0,1,2,2V65a2,2,0,0,1-2,2H12a2,2,0,0,1-2-2V15A2,2,0,0,1,12,13ZM46,71h8V81H46ZM37,85H63v2H37Z" transform="translate(-5 -8)"/><circle class="cls-1" cx="45" cy="22" r="7"/><path class="cls-1" d="M50,37a19.1,19.1,0,0,0-9.5,2.28C37.94,40.76,36,43.12,36,46v8a2.07,2.07,0,0,0,1.44,1.91c3.67,1,6.71,1,10.53,1.09H52c3.82-.09,6.86,0,10.53-1.09A2.07,2.07,0,0,0,64,54V46c0-2.88-1.94-5.24-4.5-6.72A19.1,19.1,0,0,0,50,37Z" transform="translate(-5 -8)"/><circle class="cls-2" cx="45" cy="22" r="3"/><path class="cls-2" d="M50,41a15.49,15.49,0,0,1,7.5,1.75c1.78,1,2.5,2.19,2.5,3.25v6.31A42.34,42.34,0,0,1,52,53H48a42.34,42.34,0,0,1-8-.69V46c0-1.06.72-2.22,2.5-3.25A15.49,15.49,0,0,1,50,41Z" transform="translate(-5 -8)"/></svg>