<?xml version="1.0" encoding="utf-8"?>
<!-- Generator: Adobe Illustrator 22.0.1, SVG Export Plug-In . SVG Version: 6.00 Build 0)  -->
<svg version="1.1" id="Layer_1" xmlns="http://www.w3.org/2000/svg" xmlns:xlink="http://www.w3.org/1999/xlink" x="0px" y="0px"
	 viewBox="-11.5 1012.5 1024 1024" style="enable-background:new -11.5 1012.5 1024 1024;" xml:space="preserve">
<style type="text/css">
	.st0{fill:#77328B;}
</style>
<g>
	<path class="st0" d="M780.5,1540.3v-165.8v-184.9c0-33.3-27.1-60.4-60.5-60.4h-34.3v-44.3c0-39.9-32.5-72.4-72.4-72.4
		c-39.9,0-72.4,32.5-72.4,72.4v44.3H257.5v-44.3c0-39.9-32.5-72.4-72.4-72.4c-39.9,0-72.4,32.5-72.4,72.4v44.3H78.2
		c-33.3,0-60.4,27.1-60.4,60.4v184.9v386.1c0,33.3,27.1,60.4,60.4,60.4h429.3c17.1,120.8,121.4,213.2,245.2,213.2
		c136.6,0,247.8-111.2,247.8-247.8C1000.5,1658.4,904.8,1553.6,780.5,1540.3z M578.3,1084.9c0-19.2,15.7-34.9,34.9-34.9
		c19.2,0,34.9,15.7,34.9,34.9v44.3h-69.8V1084.9z M150.1,1084.9c0-19.2,15.7-34.9,34.9-34.9c19.2,0,34.9,15.7,34.9,34.9v44.3h-69.8
		V1084.9z M55.3,1189.6c0-12.6,10.3-22.9,22.9-22.9h53.2h107.3h320.9h107.3H720c12.7,0,23,10.3,23,22.9v166.2H55.3V1189.6z
		 M55.3,1760.5v-367.3H743v145.5c-2.7,0.1-5.4,0.5-8.1,0.7c-3.9,0.3-7.8,0.6-11.7,1c-4.3,0.5-8.5,1.2-12.7,1.9
		c-3.8,0.7-7.6,1.3-11.3,2.1c-4.2,0.9-8.2,2-12.3,3.2c-3.7,1-7.3,2-10.9,3.2c-4,1.3-7.9,2.8-11.8,4.3c-3.5,1.4-7,2.7-10.5,4.2
		c-3.8,1.7-7.5,3.6-11.3,5.4c-3.3,1.7-6.7,3.3-9.9,5.1c-3.6,2-7.1,4.3-10.7,6.5c-3.1,2-6.3,3.8-9.3,5.9c-3.5,2.4-6.7,5-10.1,7.5
		c-2.9,2.2-5.8,4.3-8.6,6.7c-3.2,2.7-6.3,5.7-9.4,8.5c-2.6,2.4-5.3,4.8-7.8,7.3c-3,3.1-5.9,6.4-8.7,9.6c-2.3,2.6-4.7,5.1-6.9,7.8
		c-2.9,3.5-5.4,7.2-8.1,10.8c-2,2.7-4,5.2-5.9,8c-2.7,4.1-5.2,8.3-7.6,12.6c-1.5,2.5-3.1,5-4.5,7.6c-3,5.5-5.6,11.1-8.1,16.8
		c-0.7,1.5-1.5,3-2.2,4.5c-3.1,7.3-5.8,14.8-8.2,22.4c-0.6,2-1,4.1-1.6,6.1c-1.6,5.7-3.2,11.4-4.5,17.3c-0.6,2.9-0.9,5.8-1.4,8.7
		c-0.9,5.1-1.8,10.2-2.4,15.4c-0.3,3.3-0.4,6.6-0.6,9.9c-0.3,4.5-0.8,8.9-0.8,13.4H78.2C65.6,1783.4,55.3,1773.2,55.3,1760.5z
		 M752.7,1996.6c-110.1,0-202.2-86-209.8-195.8c-0.3-4.8-0.5-9.6-0.5-14.5c0-115.9,94.3-210.3,210.3-210.3c2.4,0,4.7,0,7,0.2
		c0.4,0,0.8,0,1.2,0.1c113.3,4.3,202,96.5,202,210C963,1902.2,868.7,1996.6,752.7,1996.6z"/>
	<path class="st0" d="M771.5,1778.5v-113.3c0-10.4-8.4-18.8-18.8-18.8s-18.8,8.4-18.8,18.8v121.1c0,5,2,9.7,5.5,13.3l70.2,70.3
		c3.7,3.7,8.5,5.5,13.3,5.5c4.8,0,9.6-1.8,13.3-5.5c7.3-7.3,7.3-19.2,0-26.5L771.5,1778.5z"/>
	<path class="st0" d="M267.4,1459.7h-136c-10.4,0-18.8,8.4-18.8,18.8v193.8c0,10.4,8.4,18.8,18.8,18.8h136
		c10.4,0,18.8-8.4,18.8-18.8v-193.8C286.1,1468.1,277.7,1459.7,267.4,1459.7z M248.6,1653.5h-98.5v-156.3h98.5V1653.5z"/>
	<path class="st0" d="M479.1,1459.7h-136c-10.4,0-18.8,8.4-18.8,18.8v193.8c0,10.4,8.4,18.8,18.8,18.8h136
		c10.4,0,18.8-8.4,18.8-18.8v-193.8C497.9,1468.1,489.5,1459.7,479.1,1459.7z M460.4,1653.5h-98.5v-156.3h98.5V1653.5z"/>
</g>
</svg>
