<?xml version="1.0" encoding="utf-8"?>
<!-- Generator: Adobe Illustrator 23.0.0, SVG Export Plug-In . SVG Version: 6.00 Build 0)  -->
<svg version="1.1" id="Layer_1" xmlns="http://www.w3.org/2000/svg" xmlns:xlink="http://www.w3.org/1999/xlink" x="0px" y="0px"
	 viewBox="0 0 46.4 45" style="enable-background:new 0 0 46.4 45;" xml:space="preserve">
<style type="text/css">
	.st0{fill:#FFFFFF;}
</style>
<g>
	<g>
		<g>
			<path class="st0" d="M6.35,5.75C3.95,5.75,2,7.7,2,10.1v28.51c-0.02,1.17,0.42,2.26,1.24,3.1C4.06,42.54,5.15,43,6.3,43h33.68
				c2.4,0,4.35-1.95,4.35-4.35V10.15c0-2.4-1.95-4.35-4.35-4.35h-2.73V3.26C37.25,2.55,36.7,2,35.99,2h-3.56
				c-0.71,0-1.26,0.55-1.26,1.26v2.49H15.16V3.26C15.16,2.55,14.61,2,13.9,2h-3.56C9.63,2,9.08,2.55,9.08,3.26v2.49H6.35z
				 M40.03,41.81H6.3c-1.74,0-3.16-1.42-3.16-3.16V14.59h40.05v24.06C43.19,40.37,41.74,41.81,40.03,41.81z M43.14,13.4h-40v-3.3
				c0-1.71,1.45-3.16,3.16-3.16h2.73v2.4c0,0.71,0.55,1.26,1.26,1.26h3.56c0.71,0,1.26-0.55,1.26-1.26v-2.4h16.01v2.4
				c0,0.71,0.55,1.26,1.26,1.26h3.61c0.71,0,1.26-0.55,1.26-1.26v-2.4h2.73c1.74,0,3.16,1.42,3.16,3.16V13.4z M36.11,9.41h-3.75
				V3.19h3.75V9.41z M13.97,9.41h-3.75V3.19h3.75V9.41z"/>
		</g>
		<g>
			<path class="st0" d="M34.21,29.22h2.04v-2.04h-2.04V29.22z"/>
		</g>
		<g>
			<path class="st0" d="M34.21,20.91h2.04v-2.04h-2.04V20.91z"/>
		</g>
		<g>
			<path class="st0" d="M26.18,29.22h2.04v-2.04h-2.04V29.22z"/>
		</g>
		<g>
			<path class="st0" d="M26.18,37.49h2.04v-2.04h-2.04V37.49z"/>
		</g>
		<g>
			<path class="st0" d="M26.18,20.91h2.04v-2.04h-2.04V20.91z"/>
		</g>
		<g>
			<path class="st0" d="M18.15,29.22h2.04v-2.04h-2.04V29.22z"/>
		</g>
		<g>
			<path class="st0" d="M18.15,37.49h2.04v-2.04h-2.04V37.49z"/>
		</g>
		<g>
			<path class="st0" d="M18.15,20.91h2.04v-2.04h-2.04V20.91z"/>
		</g>
		<g>
			<path class="st0" d="M10.08,29.22h2.04v-2.04h-2.04V29.22z"/>
		</g>
		<g>
			<path class="st0" d="M10.08,37.49h2.04v-2.04h-2.04V37.49z"/>
		</g>
	</g>
</g>
</svg>
