<?xml version="1.0" encoding="utf-8"?>
<!-- Generator: Adobe Illustrator 22.0.1, SVG Export Plug-In . SVG Version: 6.00 Build 0)  -->
<svg version="1.1" id="Layer_1" xmlns="http://www.w3.org/2000/svg" xmlns:xlink="http://www.w3.org/1999/xlink" x="0px" y="0px"
	 viewBox="0 0 361.8 108.1" style="enable-background:new 0 0 361.8 108.1;" xml:space="preserve">
<style type="text/css">
	.st0{fill:#ffffff;}
</style>
<path class="st0" d="M269.4,59.8c-8.8,0-10.9-8.9-10.9-16.2c0-5.9,2-12,9.4-12c8.8,0,10.9,8.8,10.9,16.1
	C278.8,53.5,276.8,59.8,269.4,59.8 M168.7,60c-3.8,0-5.9-3.1-5.9-6.7c0-6.8,5.9-11.8,11.5-14.6l3.1-1.3
	C179.8,48.1,177.3,60,168.7,60 M183,33.6C175,14.8,155.3,14.9,149.7,22l-0.2,0.4c-1.1,1.8-0.6,4.1,1.1,5.4c1.8,1.3,4.4,0.9,5.6-1
	c0.6-0.9,0.9-1.8,0.7-2.8c-0.1-5.2,11.5-6.5,17.7,5.4c1,2,1.8,4.1,2.4,6.3c-1.2,0.6-2.3,1.1-3.4,1.7c-7.1,3.4-15.7,8.2-16.7,15.5
	c-3.2,2.6-8.3,6-10.5,5.9c-2-0.2-3.3-2.3-2.9-6.3c0.5-4,1.6-15.9,1.6-15.9c0.6-5.1-0.2-7.9-5.4-8.4c-4.8-0.5-10.2,4.5-14,7.9
	c-0.7,0.6-1.6,1.3-2.4,2.2c0.1-0.7,0.2-1.5,0.2-2.1c0.7-4.5-1-8.5-5.1-7.7c-4.3,0.9-5.9,4.4-5.9,4.4c2.3-0.7,3.1,1.6,2.4,6L113,53.6
	c-3.2,2.4-7.6,5.4-9.6,5.1c-2-0.2-3.3-2.3-2.9-6.3c0.5-4,1.6-15.9,1.6-15.9c0.6-5.1-0.2-7.9-5.4-8.4c-4.8-0.5-10.2,4.5-14,7.9
	c-0.7,0.6-1.6,1.3-2.4,2.2c0.1-0.7,0.1-1.5,0.2-2.1c0.7-4.5-1-8.5-5.1-7.7c-4.3,0.9-5.9,4.4-5.9,4.4c2.3-0.7,3.1,1.6,2.4,6
	l-1.8,14.9V54c-3.1,2.3-7.2,5-9.2,4.8c-2-0.2-3.3-2.2-2.9-6.2c0.5-4,1.3-12.4,1.3-12.4c0.7-5.6-2.4-10-7.1-7.7
	c-1.8,1-2.6,2.8-2.6,2.8c1.8,0.1,2.1,1.6,2,3.1c0,0-1.3,12.8-1.6,16.5c-0.2,3.4,2.9,6.8,6,7.2c4.8,0.6,9.6-2.6,13.8-5.9l-0.5,3.5
	h8.1C77.5,59,80,41.5,80,41c4-4,9.8-9.5,12.6-9.3c1.8,0.1,2.1,1.6,2,3.1c0,0-1.1,10.5-1.8,17c-0.6,6.5,2.8,9.8,6,10.1
	c5.2,0.6,10-2.8,14.3-6.2l-0.5,3.9h8.1C120.6,59,123,41.5,123,41c4-4,9.8-9.5,12.6-9.3c1.8,0.1,2.1,1.6,2,3.1c0,0-1.1,10.5-1.8,17
	c-0.6,6.5,2.8,9.8,6,10.1c5.6,0.6,10.9-3.4,15.3-7.1c0.4,5,6.1,7.3,10.6,7.3c12.6,0,20.9-10.6,16.2-26.8c9.5-3.9,9.9-1.8,9,3.9
	L190.3,60h8.1c0.1-0.6,2.7-19.2,2.7-19.2c3.9-3.9,9.2-8.9,11.8-8.7c1.6,0.1,2,1,2,2.2L213.1,60h8.1c0-0.2,0.9-16.4,1.1-18.7
	c4-4,9.6-9.4,12.4-9.2c1.8,0.1,2.1,1.6,2,3.1c0,0-1.1,10.5-1.8,17c-0.6,6.5,2.8,9.8,6,10.1c4.8,0.5,9.2-2.2,13.1-5.2
	c2.6,3.4,6.6,5.6,11.5,5.6c17.2,0,22.6-13.1,22.2-20.3c-0.2-4.1-1.7-6.2-2-6.6c0.9-0.6,3.4-2.3,5.5-3.5c3.3-2.1,3.2,1.7,2.6,6.2
	L291,59.8h8.4c0.1-0.6,2.8-20.3,2.8-20.3c4-4,9.5-9.3,12.3-9c1.8,0.1,2.1,1.6,2,3.1c0,0-0.6,6-1.8,17c-1.6,15.6,7.8,29.7,27.2,32.1
	c7.6,1,17.7-0.9,19.2-10.2v-0.5c0.1-2.4-1.6-4.5-4-4.9c-2.6-0.4-4.9,1.5-5.2,4c-0.1,1.2,0.1,2.3,0.7,3.2c3.1,5.2-4.5,7.9-10.5,6.7
	c-12.2-2.6-21.4-12.2-19.4-29.8c0.9-7.7,1.6-15.9,1.6-15.9c0.6-5.1-0.2-7.9-5.4-8.4c-4.8-0.5-10.2,4.5-14,7.9
	c-0.6,0.6-1.5,1.2-2.2,2c0.1-0.5,0.1-1.1,0.2-1.6c0.7-4.6-1.1-10.4-7-7.6c-3.9,1.8-9.6,5.9-11,6.7c-3.8-4.9-11-6.8-19-4.4
	c-8.4,2.4-14.8,9.3-14.6,18.2c0,2.8,0.7,5.4,2,7.6c-2.8,2-5.9,3.7-7.4,3.5c-2-0.2-3.3-2.3-2.9-6.3c0.5-4,1.6-15.9,1.6-15.9
	c0.6-5.1-0.2-7.9-5.4-8.4c-4.8-0.5-10.2,4.5-14,7.9c-0.7,0.6-1.6,1.3-2.4,2.2c0.1-1,0.1-1.6,0.1-1.6c0.6-5.1-0.2-7.9-5.4-8.4
	c-4.8-0.5-10.2,4.5-14,7.9c-0.6,0.5-1.2,1-1.8,1.6c0.1-0.5,0.1-1.1,0.2-1.6c0.7-4.5-1-8.5-5.1-7.7C193.6,29.1,187.4,31.5,183,33.6"
	/>
<path class="st0" d="M50.8,14c-4.9,3.7-0.4,9.9,4.3,9.5c4.1-0.4,5.9-3.7,5.7-6C60.2,5.7,48.5,2,39.1,2C15.2,2,0.9,19.8,0.9,36.9
	c0,13.3,11.2,27.6,28.8,27.6c4.6,0,9.4-1,13.7-3.8v-2.2c-5,2.8-7.8,3.9-13.7,3.2c-15.1-1.8-20.5-18.3-17-32.2
	c3.5-14,11.1-24.2,26.5-25.3C46.5,3.5,59.1,7.6,50.8,14"/>
<polygon class="st0" points="77,106.7 77,91.6 79.1,91.6 79.1,98 86.3,98 86.3,91.6 88.4,91.6 88.4,106.7 86.3,106.7 86.3,99.9 
	79.1,99.9 79.1,106.7 "/>
<path class="st0" d="M98.4,91.3c4.8,0,7,3.4,7,7.8c0,4.4-2.2,7.8-7,7.8c-4.8,0-7-3.4-7-7.8C91.4,94.7,93.6,91.3,98.4,91.3
	 M98.4,105.2c3.8,0,4.8-2.9,4.8-6.1c0-3.2-0.9-6.1-4.8-6.1c-3.8,0-4.8,2.8-4.8,6.1C93.6,102.3,94.6,105.2,98.4,105.2"/>
<polygon class="st0" points="111.9,93.4 106.8,93.4 106.8,91.6 119,91.6 119,93.4 114,93.4 114,106.7 111.9,106.7 "/>
<polygon class="st0" points="120.9,106.7 120.9,91.6 130.4,91.6 130.4,93.4 122.9,93.4 122.9,98.2 130,98.2 130,99.9 122.9,99.9 
	122.9,104.9 130.5,104.9 130.5,106.7 "/>
<polygon class="st0" points="134,106.7 134,91.6 136.1,91.6 136.1,104.9 143.2,104.9 143.2,106.7 "/>
<path class="st0" d="M147.1,102.3c0,2.1,1.2,2.9,3.3,2.9c1.7,0,3.8-0.5,3.8-2.6c0-1.5-1.2-2.1-2.4-2.3c-2.4-0.5-6.6-1.1-6.6-4.5
	c0-3.3,2.9-4.5,5.9-4.5c2.6,0,5.1,1.1,5.1,4h-2.2c-0.1-1.7-1.5-2.3-3.1-2.3c-1.5,0-3.5,0.5-3.5,2.3c0,1.7,1.2,1.8,2.6,2.2
	c2.8,0.9,6.6,0.9,6.6,4.8c0,3.4-3.1,4.6-6.1,4.6c-3.2,0-5.5-1.3-5.4-4.8h2.1V102.3z"/>
<path class="st0" d="M192.6,99.9v6.8h-2.1V91.6h5.4c2.6,0,5.1,0.9,5.1,3.8c0,1.8-1.1,3.2-2.8,3.7l0,0c1.8,0.5,2.1,1.3,2.3,3.1
	c0.2,1.5,0.4,3.2,1,4.5h-2.2c-0.2-0.9-0.5-1.8-0.5-2.8c-0.1-1.3-0.1-2.6-0.9-3.3c-0.6-0.7-1.5-0.6-2.3-0.7h-3.1V99.9z M192.6,98h3.4
	c2.3-0.1,2.8-1.1,2.8-2.3c0-1.2-0.5-2.2-2.8-2.3h-3.4V98z"/>
<polygon class="st0" points="204.3,106.7 204.3,91.6 213.7,91.6 213.7,93.4 206.4,93.4 206.4,98.2 213.3,98.2 213.3,99.9 
	206.4,99.9 206.4,104.9 214,104.9 214,106.7 "/>
<path class="st0" d="M218.8,102.3c0,2.1,1.2,2.9,3.3,2.9c1.7,0,3.8-0.5,3.8-2.6c0-1.5-1.2-2.1-2.4-2.3c-2.4-0.5-6.6-1.1-6.6-4.5
	c0-3.3,2.9-4.5,5.9-4.5c2.6,0,5.1,1.1,5.1,4h-2.2c-0.1-1.7-1.5-2.3-3.1-2.3c-1.5,0-3.5,0.5-3.5,2.3c0,1.7,1.2,1.8,2.6,2.2
	c2.8,0.9,6.6,0.9,6.6,4.8c0,3.4-3.1,4.6-6.1,4.6c-3.2,0-5.5-1.3-5.4-4.8h2.1V102.3z"/>
<path class="st0" d="M237.6,91.3c4.8,0,7,3.4,7,7.8c0,4.4-2.2,7.8-7,7.8c-4.8,0-7-3.4-7-7.8C230.7,94.7,232.9,91.3,237.6,91.3
	 M237.6,105.2c3.8,0,4.8-2.9,4.8-6.1c0-3.2-0.9-6.1-4.8-6.1c-3.8,0-4.8,2.8-4.8,6.1C232.9,102.3,233.7,105.2,237.6,105.2"/>
<path class="st0" d="M249.6,99.9v6.8h-2.1V91.6h5.4c2.6,0,5.1,0.9,5.1,3.8c0,1.8-1.1,3.2-2.8,3.7l0,0c1.8,0.5,2.1,1.3,2.3,3.1
	c0.2,1.5,0.4,3.2,1,4.5h-2.2c-0.2-0.9-0.5-1.8-0.5-2.8c-0.1-1.3-0.1-2.6-0.9-3.3c-0.6-0.7-1.5-0.6-2.3-0.7h-3.1V99.9z M249.6,98h3.4
	c2.3-0.1,2.8-1.1,2.8-2.3c0-1.2-0.5-2.2-2.8-2.3h-3.4V98z"/>
<polygon class="st0" points="264.4,93.4 259.3,93.4 259.3,91.6 271.6,91.6 271.6,93.4 266.5,93.4 266.5,106.7 264.4,106.7 "/>
<path class="st0" d="M275.2,102.3c0,2.1,1.2,2.9,3.3,2.9c1.7,0,3.8-0.5,3.8-2.6c0-1.5-1.2-2.1-2.4-2.3c-2.4-0.5-6.6-1.1-6.6-4.5
	c0-3.3,3.1-4.5,5.9-4.5c2.6,0,5.1,1.1,5.1,4H282c-0.1-1.7-1.5-2.3-3.1-2.3c-1.5,0-3.5,0.5-3.5,2.3c0,1.7,1.2,1.8,2.6,2.2
	c2.8,0.9,6.6,0.9,6.6,4.8c0,3.4-3.1,4.6-6.1,4.6c-3.2,0-5.5-1.3-5.4-4.8h2.1V102.3z"/>
<path class="st0" d="M181.7,102.1c-0.7,0-1.3,0.5-1.3,1.2c0,0.4,0.1,0.6,0.2,0.9c0.5,0.5,0.2,1.2-0.2,1.6c-0.9,0.6-2,0.2-2.7-0.2
	c-0.6-0.4-1.5-1-2.3-1.8l-0.2-0.2c0.4-0.6,0.7-1.3,1.1-2.2c0-0.1,0.1-0.2,0.1-0.5c0-0.1,0.1-0.2,0.1-0.4c0.4-1,0.6-2.2,0.7-3.7h-0.4
	h-1h-0.4c0,0,0,2.8-1.6,5.2l-0.4-0.4l-0.4-0.4l-0.5-0.5l-1.3-1.6l-0.9-1c0,0,2-1.1,2.7-2.7c0,0,1-2.1-1-3.5c-1.1-0.9-3.8-1.1-5.5,0
	c-1,0.6-2.1,2.4-0.6,4.8c0,0,0.5,0.9,1,1.3c0-0.1-1.1,0.9-1.2,0.9c-0.7,0.6-1.5,1.6-1.7,2.4c-0.4,0.9-0.4,2,0,2.8
	c0.5,1.3,1.7,2.3,3.2,2.7c1.1,0.2,2.2,0.4,3.3,0c1.2-0.4,2.2-1,2.8-1.6c0.1-0.1,0.4-0.2,0.6-0.5c0.4,0.4,1,0.9,1,0.9
	c1.8,1.5,5,1.8,6.7,0.1c0.4-0.4,0.9-1,1.1-1.6C183.2,103.4,183,102.2,181.7,102.1 M167.7,93.4c0.4-0.5,1.1-0.9,1.7-0.9
	s1.3,0.1,1.8,0.6c0.2,0.2,0.4,0.5,0.4,0.7c0,0.4,0,0.6-0.2,1c-0.4,0.6-0.9,1-1.5,1.5c-0.2,0.1-0.4,0.2-0.6,0.5c-0.1,0-0.1,0.1-0.1,0
	l-0.1-0.1c-0.4-0.4-0.6-0.6-1-1c-0.2-0.4-0.6-0.7-0.6-1.1C167.3,94.2,167.5,93.8,167.7,93.4 M168.3,105.1c-0.4-0.1-0.9-0.2-1.2-0.4
	c-1-0.5-1.8-1.8-0.9-3.4c0.4-0.6,1.3-1.3,2.2-2.1c0,0,2.6,2.4,4.3,4.3c-0.2,0.2-0.5,0.4-0.9,0.6
	C171.1,104.6,169.8,105.2,168.3,105.1"/>
</svg>
