<?xml version="1.0" encoding="utf-8"?>
<!-- Generator: Adobe Illustrator 22.0.1, SVG Export Plug-In . SVG Version: 6.00 Build 0)  -->
<svg version="1.1" id="Layer_1" xmlns="http://www.w3.org/2000/svg" xmlns:xlink="http://www.w3.org/1999/xlink" x="0px" y="0px"
	 viewBox="-11.5 1012.5 1024 1024" style="enable-background:new -11.5 1012.5 1024 1024;" xml:space="preserve">
<style type="text/css">
	.st0{fill:#77328B;stroke:#77328B;stroke-width:3;stroke-miterlimit:10;}
</style>
<g>
	<g>
		<path class="st0" d="M998.7,1826.7H1.1c-7,0-12.6-5.6-12.6-12.6v-629c0-7,5.6-12.6,12.6-12.6h997.7c7,0,12.6,5.6,12.6,12.6v629
			C1011.3,1821,1005.7,1826.7,998.7,1826.7z M13.7,1801.5h972.5v-603.8H13.7V1801.5z"/>
	</g>
	<g>
		<path class="st0" d="M810.8,1726H189c-7,0-12.6-5.6-12.6-12.6c0-41.2-33.5-74.7-74.7-74.7c-7,0-12.6-5.6-12.6-12.6V1373
			c0-7,5.6-12.6,12.6-12.6c41.2,0,74.7-33.5,74.7-74.7c0-7,5.6-12.6,12.6-12.6h621.8c7,0,12.6,5.6,12.6,12.6
			c0,41.2,33.5,74.7,74.7,74.7c7,0,12.6,5.6,12.6,12.6v253.1c0,7-5.6,12.6-12.6,12.6c-41.2,0-74.7,33.5-74.7,74.7
			C823.4,1720.4,817.8,1726,810.8,1726z M200.8,1700.9H799c5.7-45,41.5-80.8,86.5-86.5v-229.6c-45-5.7-80.8-41.5-86.5-86.5H200.8
			c-5.7,45-41.5,80.8-86.5,86.5v229.6C159.3,1620.1,195.1,1655.8,200.8,1700.9z"/>
	</g>
	<g>
		<path class="st0" d="M499.9,1638c-76.3,0-138.4-62.1-138.4-138.4c0-76.3,62.1-138.4,138.4-138.4s138.4,62.1,138.4,138.4
			C638.3,1575.9,576.2,1638,499.9,1638z M499.9,1386.4c-62.4,0-113.2,50.8-113.2,113.2c0,62.4,50.8,113.2,113.2,113.2
			s113.2-50.8,113.2-113.2C613.1,1437.2,562.3,1386.4,499.9,1386.4z"/>
	</g>
	<g>
		<path class="st0" d="M496,1574v-13.1c-16.4-1.7-31.1-8.2-44.2-19.6l13.1-15.6c10.1,8.7,20.4,13.9,31.1,15.6v-34.8
			c-13.5-3.2-23.4-7.5-29.7-12.8c-6.3-5.3-9.4-13.1-9.4-23.4c0-10.4,3.6-18.8,10.9-25.4c7.2-6.6,16.7-10.2,28.3-10.8v-9h11.5v9.2
			c13.2,1,25.6,5.5,37.4,13.5l-11.7,16.5c-7.9-5.6-16.5-9.1-25.7-10.4v33.8h0.5c13.8,3.2,23.9,7.6,30.3,13.1
			c6.5,5.5,9.7,13.5,9.7,24c0,10.5-3.7,19-11.1,25.6c-7.4,6.6-17.2,10.2-29.4,10.8v12.9H496z M483.3,1458.1c-3.1,2.7-4.6,6-4.6,10.1
			c0,4,1.2,7.2,3.6,9.5c2.4,2.3,6.9,4.6,13.7,6.7v-31.1C490.6,1453.8,486.3,1455.4,483.3,1458.1z M521.1,1536.8
			c3.3-2.7,5-6.2,5-10.4c0-4.2-1.3-7.5-3.9-10c-2.6-2.5-7.6-4.8-14.7-6.9v32.3C513.2,1541.3,517.7,1539.6,521.1,1536.8z"/>
	</g>
	<g>
		<path class="st0" d="M801.8,1512.2h-25.2c-7,0-12.6-5.6-12.6-12.6c0-7,5.6-12.6,12.6-12.6h25.2c7,0,12.6,5.6,12.6,12.6
			C814.4,1506.5,808.8,1512.2,801.8,1512.2z"/>
	</g>
	<g>
		<path class="st0" d="M223.2,1512.2H198c-7,0-12.6-5.6-12.6-12.6c0-7,5.6-12.6,12.6-12.6h25.2c7,0,12.6,5.6,12.6,12.6
			C235.7,1506.5,230.1,1512.2,223.2,1512.2z"/>
	</g>
</g>
</svg>
