<?xml version="1.0" encoding="utf-8"?>
<!-- Generator: Adobe Illustrator 23.0.0, SVG Export Plug-In . SVG Version: 6.00 Build 0)  -->
<svg version="1.1" id="Layer_1" xmlns="http://www.w3.org/2000/svg" xmlns:xlink="http://www.w3.org/1999/xlink" x="0px" y="0px"
	 viewBox="0 0 44.86 44.8" style="enable-background:new 0 0 44.86 44.8;" xml:space="preserve">
<style type="text/css">
	.st0{fill:#77328B;}
</style>
<g>
	<path class="st0" d="M22.49,2c-4.89,0-8.86,3.97-8.86,8.86s3.97,8.86,8.86,8.86c4.89,0,8.86-3.97,8.86-8.86S27.38,2,22.49,2z
		 M22.49,18.48c-4.2,0-7.62-3.42-7.62-7.62s3.42-7.62,7.62-7.62c4.2,0,7.62,3.42,7.62,7.62S26.7,18.48,22.49,18.48z"/>
	<path class="st0" d="M22.49,7.27c0.82,0,1.49,0.67,1.49,1.49c0,0.34,0.28,0.62,0.62,0.62c0.34,0,0.62-0.28,0.62-0.62
		c0-1.22-0.79-2.27-1.96-2.61L23.11,6.1V5.6c0-0.34-0.28-0.62-0.62-0.62s-0.62,0.28-0.62,0.62v0.5l-0.15,0.04
		c-1.17,0.34-1.95,1.39-1.95,2.61c0,1.5,1.22,2.72,2.72,2.72c0.82,0,1.49,0.67,1.49,1.49c0,0.82-0.67,1.48-1.49,1.48
		c-0.82,0-1.48-0.67-1.48-1.48c0-0.34-0.28-0.62-0.62-0.62c-0.34,0-0.62,0.28-0.62,0.62c0,1.22,0.79,2.26,1.95,2.6l0.15,0.04v0.51
		c0,0.34,0.28,0.62,0.62,0.62s0.62-0.28,0.62-0.62v-0.51l0.15-0.04c1.17-0.34,1.96-1.39,1.96-2.6c0-1.5-1.22-2.73-2.73-2.73
		c-0.82,0-1.48-0.67-1.48-1.48C21.01,7.93,21.67,7.27,22.49,7.27z"/>
	<path class="st0" d="M38.96,35.63h-2.57l0.98-0.98c3.54-3.54,5.49-8.25,5.49-13.27c0-5.01-1.95-9.72-5.49-13.27
		c-0.24-0.24-0.63-0.24-0.87,0c-0.12,0.12-0.18,0.27-0.18,0.44c0,0.17,0.06,0.32,0.18,0.44c3.31,3.31,5.13,7.71,5.13,12.39
		c0,4.68-1.82,9.08-5.13,12.39l-0.98,0.98v-2.57c0-0.34-0.28-0.62-0.62-0.62s-0.62,0.28-0.62,0.62v4.07c0,0.08,0.02,0.16,0.05,0.24
		c0.06,0.14,0.18,0.26,0.33,0.33c0.07,0.03,0.15,0.05,0.24,0.05h4.07c0.34,0,0.62-0.28,0.62-0.62C39.57,35.9,39.3,35.63,38.96,35.63
		z"/>
	<path class="st0" d="M10.26,7.98c-0.08-0.03-0.15-0.05-0.24-0.05H5.96c-0.34,0-0.62,0.28-0.62,0.62s0.28,0.62,0.62,0.62h2.57
		l-0.98,0.98c-3.54,3.54-5.49,8.25-5.49,13.27s1.95,9.73,5.49,13.26c0.11,0.11,0.27,0.18,0.44,0.18c0,0,0,0,0,0
		c0.17,0,0.32-0.06,0.44-0.18c0.12-0.12,0.18-0.27,0.18-0.44s-0.06-0.32-0.18-0.44c-6.83-6.83-6.83-17.95,0-24.78l0.98-0.98v2.57
		c0,0.34,0.28,0.62,0.62,0.62c0.34,0,0.62-0.28,0.62-0.62V8.55c0-0.08-0.02-0.16-0.05-0.24C10.53,8.16,10.41,8.05,10.26,7.98z"/>
	<path class="st0" d="M22.53,30.86c0.32-0.63,0.32-1.26,0.32-1.28c0-0.11-0.04-0.22-0.12-0.3c-0.08-0.08-0.18-0.13-0.3-0.13h-0.01
		c-0.11,0-0.22,0.05-0.3,0.13c-0.08,0.08-0.12,0.19-0.12,0.3c0,0,0,0.46-0.23,0.9c-0.18,0.37-0.54,0.86-1.53,0.86
		c-0.03,0-0.06,0-0.09,0.01c-0.99,0.03-1.79,0.51-2.19,1.32c-0.32,0.63-0.32,1.25-0.32,1.28c0,0.03,0,0.65,0.32,1.28
		c0.25,0.49,0.87,1.32,2.29,1.32c1.03,0,1.87-0.48,2.29-1.32c0.32-0.63,0.32-1.26,0.32-1.28c0-0.03,0-0.65-0.32-1.28
		c-0.18-0.36-0.47-0.67-0.83-0.9C22.06,31.53,22.35,31.22,22.53,30.86z M21.77,34.84c-0.18,0.37-0.54,0.85-1.53,0.85
		c-0.99,0-1.35-0.49-1.53-0.86c-0.22-0.44-0.23-0.9-0.23-0.9c0,0,0-0.45,0.23-0.9c0.18-0.37,0.54-0.85,1.53-0.85
		c0.99,0,1.34,0.49,1.53,0.85c0.22,0.44,0.23,0.9,0.23,0.9C22,33.94,21.99,34.39,21.77,34.84z"/>
	<path class="st0" d="M26.8,37.21c-0.12,0-0.22,0.04-0.31,0.12c-0.08,0.08-0.13,0.18-0.13,0.31c0,0.15-0.02,0.16-0.1,0.19
		c-0.05,0.03-0.12,0.03-0.13,0.03c0,0-0.18,0-0.36-0.09c-0.16-0.08-0.31-0.19-0.31-0.57c0-0.37,0.19-1.08,0.52-1.89
		c0.26-0.65,0.53-1.19,0.53-1.19c0.1-0.21,0.02-0.46-0.19-0.57c-0.06-0.03-0.12-0.05-0.19-0.05l-2.18,0c-0.23,0-0.42,0.19-0.42,0.42
		c0,0.23,0.19,0.42,0.42,0.42h1.52c-0.07,0.15-0.16,0.35-0.28,0.64c-0.27,0.67-0.58,1.53-0.58,2.2c0,0.59,0.29,1.09,0.78,1.33
		c0.35,0.18,0.7,0.18,0.73,0.18c0.03,0.01,0.26,0,0.52-0.13c0.27-0.14,0.56-0.46,0.56-0.95c0-0.11-0.04-0.22-0.12-0.3
		C27.01,37.26,26.91,37.22,26.8,37.21z"/>
	<path class="st0" d="M25.81,25.75c-2.17-0.9-4.61-0.9-6.78,0c-4.51,1.87-6.66,7.06-4.8,11.58c1.38,3.32,4.59,5.47,8.2,5.47
		c1.16,0,2.3-0.23,3.38-0.67c2.19-0.91,3.89-2.61,4.8-4.79c0.91-2.19,0.91-4.59,0-6.78C29.7,28.36,28,26.66,25.81,25.75z
		 M29.46,36.85c-0.78,1.88-2.25,3.35-4.13,4.13c-1.87,0.77-3.96,0.77-5.83,0c-1.88-0.78-3.35-2.24-4.13-4.12
		c-1.61-3.88,0.24-8.35,4.13-9.96c0.94-0.39,1.93-0.58,2.92-0.58c0.99,0,1.98,0.19,2.92,0.58c1.88,0.78,3.35,2.25,4.13,4.13
		C30.24,32.9,30.24,34.97,29.46,36.85z"/>
</g>
</svg>
