<svg id="Layer_1" data-name="Layer 1" xmlns="http://www.w3.org/2000/svg" viewBox="0 0 46.27 44.26"><defs><style>.cls-1{fill:#252776;stroke:#fff;stroke-miterlimit:10;stroke-width:0.5px;}</style></defs><title>05</title><path class="cls-1" d="M46.23,41.44s-2.55-1.1-2.09-3a7.89,7.89,0,0,0-2.39-7.13c-1.19-1-3.26-2-6.43-.85l-3.81-3.82a.59.59,0,0,0-.06-.14c-.44-.8-.9-1.58-1.36-2.35L43.82,10.41a3.36,3.36,0,0,0,1-2.4,3.32,3.32,0,0,0-1-2.39L40.43,2.23a3.47,3.47,0,0,0-4.79,0L31.93,5.94h0l-8.74,8.74A44.54,44.54,0,0,0,9.43,3.74C6,2,4.64,2.42,4.23,2.67a.89.89,0,0,0-.31.3C3.67,3.38,3.27,4.71,5,8.18A46.89,46.89,0,0,0,15.94,21.92L4,33.9a.77.77,0,0,0-.17.27l0,.07s0,0,0,.07L1.05,43.86a.91.91,0,0,0,.24.9.89.89,0,0,0,.65.27,1,1,0,0,0,.24,0l9.56-2.68.06,0,.08,0a.9.9,0,0,0,.26-.17L25.39,28.84c.77.48,1.37.82,2.23,1.3l4.07,4.07a9.33,9.33,0,0,0,1.92,6.57,8.84,8.84,0,0,0,7.46,3.62,10.89,10.89,0,0,0,5.24-1.31.92.92,0,0,0,.48-.85A.94.94,0,0,0,46.23,41.44ZM32.69,32.61,29.47,29.4l1.11-1.11,3.22,3.22Zm-21.2,7.53L9.35,38,36,11.33l2.14,2.14ZM5.91,34.55,32.58,7.89,34.72,10,8.05,36.7Zm31-31a1.59,1.59,0,0,1,2.2,0l3.38,3.38A1.54,1.54,0,0,1,43,8a1.51,1.51,0,0,1-.46,1.1l-3.06,3.06L36.67,9.38h0l-2.8-2.79ZM6.64,7.36A10.06,10.06,0,0,1,5.55,4.3,9.79,9.79,0,0,1,8.62,5.39,42.61,42.61,0,0,1,21.88,16l-4.64,4.63A45,45,0,0,1,6.64,7.36Zm-1.57,29,2.34,2.34h0L9.74,41,3.26,42.79ZM28.75,25.48l.76,1.28L28,28.26l-1.3-.75Zm6.37,14.25c-1.9-2.75-1.71-4.75-1.6-5.35L35.6,32.3c2-.81,3.72-.68,5,.38A6.07,6.07,0,0,1,42.36,38a4.08,4.08,0,0,0,1.56,4.14C40.87,43.11,37.07,42.56,35.12,39.73Z" transform="translate(-0.77 -1.02)"/></svg>