<?xml version="1.0" encoding="utf-8"?>
<!-- Generator: Adobe Illustrator 23.0.1, SVG Export Plug-In . SVG Version: 6.00 Build 0)  -->
<svg version="1.1" id="Layer_1" xmlns="http://www.w3.org/2000/svg" xmlns:xlink="http://www.w3.org/1999/xlink" x="0px" y="0px"
	 viewBox="0 0 85.2 82.1" style="enable-background:new 0 0 85.2 82.1;" xml:space="preserve">
<style type="text/css">
	.st0{fill:#77328B;}
</style>
<g>
	<path class="st0" d="M64.2,48h16c2.7,0,5-2.3,5-5V7c0-2.7-2.3-5-5-5h-16c-0.3,0-0.7,0-1,0.1v45.8C63.5,48,63.8,48,64.2,48z
		 M72.2,13c1.7,0,3,1.3,3,3s-1.3,3-3,3s-3-1.3-3-3S70.5,13,72.2,13z"/>
	<path class="st0" d="M0.1,43.7C0.6,47.1,3,50.5,6.2,51h25.7c-1.5,10.2-0.5,19.5,2.9,25.5c1.9,3.3,4.6,5.1,7.2,5.5
		c4.7,0.6,8.5-2.3,8.9-7.8c0.4-11,1.8-17.7,8.2-27.3V3.7c-0.7-0.6-1.4-1.1-2.2-1.5c-1.7-1-3.5-1.6-6.1-1.8C45.7-0.1,37.3,0.3,18,0.2
		c-0.5,0-0.9,0.2-1.2,0.5c-3.9,3.2-5.6,6.2-6.3,9.6c-0.4,0.1-0.7,0.3-1,0.7c-2.9,3.6-4,7.8-3.3,11.4c-0.3,0.1-0.5,0.3-0.7,0.6
		c-3.4,4-4.1,9.1-2.9,12.9C0.7,38.2-0.2,41,0.1,43.7z"/>
</g>
</svg>
