<?xml version="1.0" encoding="utf-8"?>
<!-- Generator: Adobe Illustrator 23.0.1, SVG Export Plug-In . SVG Version: 6.00 Build 0)  -->
<svg version="1.1" id="Layer_1" xmlns="http://www.w3.org/2000/svg" xmlns:xlink="http://www.w3.org/1999/xlink" x="0px" y="0px"
	 viewBox="0 0 85.1 82.1" style="enable-background:new 0 0 85.1 82.1;" xml:space="preserve">
<style type="text/css">
	.st0{fill:#9A9A9A;}
</style>
<g transform="translate(0,-952.36218)">
	<path class="st0" d="M51,1026.5c0.4-11.5,1.9-18.3,9-28.5c0.9,1.4,2.4,2.4,4.2,2.4h16c2.7,0,5-2.3,5-5v-36c0-2.7-2.3-5-5-5h-16
		c-1.7,0-3.3,0.9-4.2,2.2c-1-0.8-2-1.6-3-2.2c-1.7-1-3.5-1.6-6.1-1.8c-5.1-0.5-13.5-0.1-32.8-0.2c-0.4,0-0.9,0.2-1.2,0.5
		c-3.9,3.2-5.6,6.2-6.3,9.6c-0.4,0.1-0.7,0.3-1,0.7c-2.9,3.6-4,7.8-3.3,11.4c-0.3,0.1-0.5,0.3-0.7,0.6c-3.4,4-4.1,9.1-2.9,12.9
		c-2.1,2.5-2.9,5.3-2.6,8c0.5,3.4,2.9,6.8,6.1,7.3H32c-1.5,10.1-0.5,19.4,2.9,25.5c1.8,3.3,4.5,5.1,7.2,5.5
		C46.8,1035,50.5,1032,51,1026.5L51,1026.5z M43.5,1030.4c-1.9,0.2-4.1-1.3-5.2-3.5c-2.9-5.1-4.1-14.8-2.1-25.1
		c0.2-1.2-0.8-2.4-2-2.4H6.8c-1.5-0.8-2.5-2.1-2.7-3.8c-0.2-1.6,0.5-3.5,2.1-5.2h14c1.1,0,2-0.9,2-2s-1-2-2-2H6.4
		c-0.6-2.2-0.1-5.2,1.8-8h12c1.1,0,2-0.9,2-2s-1-2-2-2h-9.8c-0.6-2.2-0.1-5.1,1.8-8h8c1.1,0,2-0.9,2-2s-1-2-2-2h-5.5
		c0.6-2.1,1.7-3.8,4.3-6c18.6,0.1,27.2-0.2,31.5,0.2c2.2,0.2,3.2,0.6,4.4,1.2c1,0.6,2.3,1.7,4.2,3.2v31.2
		c-9.3,11.8-11.8,21.8-12.3,34.1C46.4,1029.1,45,1030.2,43.5,1030.4L43.5,1030.4z M80.2,996.4h-16c-0.6,0-1-0.4-1-1v-36
		c0-0.6,0.4-1,1-1h16c0.6,0,1,0.4,1,1v36C81.2,996,80.8,996.4,80.2,996.4L80.2,996.4z M72.2,971.4c1.7,0,3-1.3,3-3s-1.3-3-3-3
		s-3,1.3-3,3S70.5,971.4,72.2,971.4z"/>
</g>
</svg>
