<?xml version="1.0" encoding="utf-8"?>
<!-- Generator: Adobe Illustrator 22.0.1, SVG Export Plug-In . SVG Version: 6.00 Build 0)  -->
<svg version="1.1" id="Layer_1" xmlns="http://www.w3.org/2000/svg" xmlns:xlink="http://www.w3.org/1999/xlink" x="0px" y="0px"
	 viewBox="0 0 39 44" style="enable-background:new 0 0 39 44;" xml:space="preserve">
<style type="text/css">
	.st0{fill:#812990;}
</style>
<polygon class="st0" points="1,42.9 1,37.7 1.5,37.7 1.5,42.5 4.1,42.5 4.1,42.9 "/>
<rect x="5.4" y="37.7" class="st0" width="0.5" height="5.2"/>
<polygon class="st0" points="7.7,42.9 7.7,37.7 10.6,37.7 10.6,38.1 8.1,38.1 8.1,40 10.5,40 10.5,40.4 8.1,40.4 8.1,42.9 "/>
<polygon class="st0" points="12.1,42.9 12.1,37.7 15.1,37.7 15.1,38.1 12.5,38.1 12.5,40 15,40 15,40.4 12.5,40.4 12.5,42.5 
	15.2,42.5 15.2,42.9 "/>
<path class="st0" d="M18,43c-0.8,0-1.5-0.6-1.5-1.5H17c0,0.8,0.6,1,1.3,1c0.6,0,1.2-0.3,1.2-1c0-0.5-0.4-0.8-0.8-0.9
	c-0.8-0.3-2.1-0.5-2.1-1.7c0-0.9,0.8-1.4,1.6-1.4c0.7,0,1.6,0.2,1.7,1.2h-0.5c0-0.6-0.6-0.8-1.1-0.8c-0.5,0-1.2,0.3-1.2,0.9
	c0,1.5,2.9,0.8,2.9,2.6C20,42.6,19.1,43,18,43"/>
<polygon class="st0" points="22.6,38.1 20.9,38.1 20.9,37.7 24.7,37.7 24.7,38.1 23,38.1 23,42.9 22.6,42.9 "/>
<polygon class="st0" points="27.1,40.7 25.2,37.7 25.8,37.7 27.4,40.2 29,37.7 29.5,37.7 27.6,40.6 27.6,42.9 27.1,42.9 "/>
<polygon class="st0" points="30.6,42.9 30.6,37.7 31.1,37.7 31.1,42.5 33.7,42.5 33.7,42.9 "/>
<polygon class="st0" points="35,42.9 35,37.7 38.1,37.7 38.1,38.1 35.4,38.1 35.4,40 38,40 38,40.4 35.4,40.4 35.4,42.5 38.2,42.5 
	38.2,42.9 "/>
<path class="st0" d="M29.7,10.2C23.8-0.9,11.4-0.6,7.7,4L7.6,4.3C6.8,5.5,7.2,7.1,8.3,7.9c1.3,0.9,3,0.6,3.8-0.7
	c0.4-0.6,0.6-1.3,0.5-1.9c-0.1-3.6,7.9-4.4,12,3.7c0.7,1.3,1.2,2.8,1.6,4.3c-0.8,0.4-1.6,0.8-2.4,1.1c-4.8,2.3-10.7,5.6-11.5,10.6
	c0,0-0.1,0.6,0,1.1l0,0.2c0.2,3.4,4.2,5,7.3,5c8.6,0,14.8-7.4,11.1-18.4C30.2,11.3,29.7,10.2,29.7,10.2 M20.7,30c-2.5,0-4-2.1-4-4.6
	c0-4.7,4-8.1,7.9-10l2.1-0.9C28.3,21.9,26.7,30,20.7,30"/>
</svg>
