<?xml version="1.0" encoding="utf-8"?>
<!-- Generator: Adobe Illustrator 22.0.1, SVG Export Plug-In . SVG Version: 6.00 Build 0)  -->
<svg version="1.1" id="Layer_1" xmlns="http://www.w3.org/2000/svg" xmlns:xlink="http://www.w3.org/1999/xlink" x="0px" y="0px"
	 viewBox="-11.5 1012.5 1024 1024" style="enable-background:new -11.5 1012.5 1024 1024;" xml:space="preserve">
<style type="text/css">
	.st0{fill:#77328B;stroke:#FFFFFF;stroke-width:8;stroke-miterlimit:10;}
</style>
<g transform="translate(0,-952.36218)">
	<path class="st0" d="M507.5,1969.5c278.5,0,505,226.5,505,505c0,278.5-226.5,505-505,505s-505-226.5-505-505
		C2.5,2196,229,1969.5,507.5,1969.5z M507.5,2036.8c-242.1,0-437.7,195.6-437.7,437.7c0,242.1,195.6,437.7,437.7,437.7
		s437.7-195.6,437.7-437.7C945.2,2232.3,749.6,2036.8,507.5,2036.8z M507.5,2171.5c18.6,0,33.7,15.1,33.7,33.7v269.3
		c-1.4,13-6.7,20.2-14.7,27.9l-162,162.5c-13.1,13.1-34.2,13.1-47.3,0c-13.1-13.1-13.1-34.2,0-47.3l156.8-156.8v-255.7
		C473.8,2186.5,488.9,2171.5,507.5,2171.5z"/>
</g>
</svg>
