<svg id="Layer_1" data-name="Layer 1" xmlns="http://www.w3.org/2000/svg" viewBox="0 0 65.25 48.5"><defs><style>.cls-1{fill:#252776;stroke:#fff;stroke-miterlimit:10;stroke-width:0.25px;}</style></defs><title>01</title><path class="cls-1" d="M42.6,14.3H14.5V25H42.6Zm-1.5,9.2H16V15.8H41.2v7.7Z" transform="translate(0.13 -8.27)"/><rect class="cls-1" x="16.63" y="37.63" width="7.9" height="1.5"/><rect class="cls-1" x="36.03" y="41.02" width="1.6" height="1.5"/><rect class="cls-1" x="32.92" y="37.63" width="7.9" height="1.5"/><rect class="cls-1" x="36.03" y="34.13" width="1.6" height="1.5"/><polygon class="cls-1" points="21.32 21.13 19.82 21.13 19.82 24.32 16.63 24.32 16.63 25.73 19.82 25.73 19.82 28.93 21.32 28.93 21.32 25.73 24.43 25.73 24.43 24.32 21.32 24.32 21.32 21.13"/><polygon class="cls-1" points="39.13 21.73 36.83 24.02 34.63 21.73 33.52 22.82 35.83 25.02 33.52 27.32 34.63 28.32 36.83 26.13 39.13 28.32 40.13 27.32 37.92 25.02 40.13 22.82 39.13 21.73"/><rect class="cls-1" x="46.12" y="38.48" width="14.2" height="1.5" transform="translate(-12.03 40.84) rotate(-45)"/><path class="cls-1" d="M56.3,39.9A2.7,2.7,0,1,0,59,42.6,2.69,2.69,0,0,0,56.3,39.9Zm0,3.8a1.2,1.2,0,1,1,1.2-1.2A1.22,1.22,0,0,1,56.3,43.7Z" transform="translate(0.13 -8.27)"/><path class="cls-1" d="M49.9,38.8a2.7,2.7,0,1,0-2.7-2.7A2.69,2.69,0,0,0,49.9,38.8Zm0-3.9a1.2,1.2,0,1,1-1.2,1.2A1.16,1.16,0,0,1,49.9,34.9Z" transform="translate(0.13 -8.27)"/><path class="cls-1" d="M61.5,30.9A11.54,11.54,0,0,0,53,27.4a12.43,12.43,0,0,0-5.2,1.2V8.4H9.3V56.6H47.8V50A11.36,11.36,0,0,0,53,51.2h.1a11.88,11.88,0,0,0,8.4-20.3ZM46.3,55.1H10.8V9.9H46.4V29.5a11.93,11.93,0,0,0,0,19.7v5.9Zm6.8-5.3h0A10.41,10.41,0,0,1,42.7,39.3,10.48,10.48,0,0,1,53.2,28.9,10.41,10.41,0,0,1,63.6,39.4,10.61,10.61,0,0,1,53.1,49.8Z" transform="translate(0.13 -8.27)"/><path class="cls-1" d="M2.8,19.7A2.86,2.86,0,0,0,0,22.5V50.9l2.8,5.6,2.8-5.6V22.5A2.8,2.8,0,0,0,2.8,19.7Zm0,1.5a1.32,1.32,0,0,1,1.3,1.3v3.6H1.5V22.5A1.32,1.32,0,0,1,2.8,21.2Zm1.3,6.4V47.8H1.5V27.6ZM2.8,53.2,1.5,50.5V49.2H4.2v1.3Z" transform="translate(0.13 -8.27)"/></svg>