<?xml version="1.0" encoding="utf-8"?>
<!-- Generator: Adobe Illustrator 22.0.1, SVG Export Plug-In . SVG Version: 6.00 Build 0)  -->
<svg version="1.1" xmlns="http://www.w3.org/2000/svg" xmlns:xlink="http://www.w3.org/1999/xlink" x="0px" y="0px"
	 viewBox="0 0 90.7 79.3" style="enable-background:new 0 0 90.7 79.3;" xml:space="preserve">
<style type="text/css">
	.st0{fill:#FFFFFF;}
</style>
<g id="Layer_2">
	<path class="st0" d="M45.6,15c0,0-11.7-16.8-27.9-9.3S1.5,29.3,8.1,41.3s37.3,34,37.3,34s23.2-15,32.9-28.8s19.2-32.2-8.2-42.2
		C70.1,4.4,54.4-0.2,45.6,15z"/>
</g>
<g id="Layer_1">
	<g>
		<g>
			<path class="st0" d="M45.5,77.6L45.5,77.6c-0.5,0-1-0.1-1.3-0.4c-1.2-0.9-29.5-21-39.9-38.1c0,0,0,0,0-0.1
				C2,35.1,0.7,30.7,0.7,26.2c0-13.7,11.2-24.9,24.9-24.9c7.9,0,15.3,3.8,20,10c4.7-6.3,12-10,20-10c13.7,0,24.9,11.2,24.9,24.9
				c0,4.5-1.2,9-3.6,12.8c0,0,0,0,0,0.1C76.5,56.1,48.2,76.3,47,77.2C46.4,77.5,45.9,77.6,45.5,77.6z M7.9,37
				c8.8,14.3,32,31.8,37.5,35.9C51,68.8,74.1,51.3,83,37l0,0c1.9-3.2,3-6.9,3-10.6c0-11.3-9.2-20.5-20.5-20.5
				C58,5.9,51,10,47.4,16.7c-0.4,0.7-1.1,1.1-1.9,1.1s-1.5-0.4-1.9-1.1c-3.7-6.9-10.6-11-18.1-11C14.2,5.7,5,14.9,5,26.2
				C4.9,30,6,33.7,7.9,37C7.9,36.9,7.9,36.9,7.9,37z"/>
		</g>
	</g>
</g>
</svg>
