<?xml version="1.0" encoding="utf-8"?>
<!-- Generator: Adobe Illustrator 23.0.0, SVG Export Plug-In . SVG Version: 6.00 Build 0)  -->
<svg version="1.1" id="Layer_1" xmlns="http://www.w3.org/2000/svg" xmlns:xlink="http://www.w3.org/1999/xlink" x="0px" y="0px"
	 viewBox="0 0 45.46 45" style="enable-background:new 0 0 45.46 45;" xml:space="preserve">
<style type="text/css">
	.st0{fill:#77328B;}
</style>
<g>
	<path class="st0" d="M42.74,19.36l0.01-0.07c-0.01-0.13-0.09-0.3-0.22-0.43c-0.14-0.14-0.32-0.2-0.49-0.2
		c-0.4,0.01-0.71,0.33-0.7,0.72c0,0.05,0.01,0.1,0.03,0.17l0.21,0.77l-0.13,0.02c0.09,0.78,0.14,1.47,0.14,2.15
		c0,10.52-8.56,19.09-19.09,19.09S3.41,33.02,3.41,22.5c0-10.52,8.56-19.09,19.09-19.09c1.59,0,3.22,0.22,4.84,0.64l0.12,0.01
		c0.35,0.07,0.69-0.11,0.81-0.42c0.07-0.17,0.07-0.37,0-0.54c-0.07-0.17-0.21-0.31-0.38-0.38c-0.05-0.02-0.12-0.04-0.21-0.04
		C25.87,2.23,24.14,2,22.5,2C11.2,2,2,11.2,2,22.5S11.2,43,22.5,43S43,33.8,43,22.5c0-0.91-0.08-1.87-0.25-3L42.74,19.36z"/>
	<path class="st0" d="M23.82,21.27l-0.61-7.91c0-0.44-0.31-0.76-0.71-0.76c-0.39,0-0.71,0.32-0.71,0.71l-0.65,8.54
		c-0.04,0.23-0.05,0.36-0.05,0.44l-0.01,0.25c0.02,0.06,0.28,0.32,0.77,0.51L22,23.14l4.59,3.75c0.3,0.3,0.75,0.3,1.03,0.02
		c0.28-0.28,0.27-0.72,0-1L23.82,21.27z"/>
	<path class="st0" d="M43.26,5.98c-0.13-0.12-0.31-0.2-0.5-0.2c0,0,0,0,0,0c-0.19,0-0.37,0.07-0.5,0.2l-7.59,7.59L32.3,9.44
		c-0.09-0.16-0.25-0.28-0.43-0.33c-0.06-0.02-0.12-0.02-0.18-0.02c-0.12,0-0.24,0.03-0.35,0.09c-0.34,0.2-0.45,0.63-0.26,0.97
		l2.82,4.91c0.09,0.16,0.25,0.28,0.43,0.33c0.18,0.05,0.37,0.02,0.53-0.07c0.08-0.05,0.15-0.11,0.21-0.19l0.06-0.07l0.17-0.13
		l7.96-7.96c0.13-0.13,0.21-0.31,0.21-0.5S43.39,6.12,43.26,5.98z"/>
</g>
</svg>
