<?xml version="1.0" encoding="utf-8"?>
<!-- Generator: Adobe Illustrator 23.0.1, SVG Export Plug-In . SVG Version: 6.00 Build 0)  -->
<svg version="1.1" id="Layer_1" xmlns="http://www.w3.org/2000/svg" xmlns:xlink="http://www.w3.org/1999/xlink" x="0px" y="0px"
	 viewBox="0 0 85.2 82.1" style="enable-background:new 0 0 85.2 82.1;" xml:space="preserve">
<style type="text/css">
	.st0{fill:none;}
	.st1{fill:#77328B;}
</style>
<circle class="st0" cx="20.4" cy="87.5" r="3"/>
<g>
	<path class="st1" d="M21,34.2H5c-2.7,0-5,2.3-5,5v36c0,2.7,2.3,5,5,5h16c0.3,0,0.7,0,1-0.1V34.3C21.7,34.2,21.4,34.2,21,34.2z
		 M13,69.2c-1.7,0-3-1.3-3-3s1.3-3,3-3s3,1.3,3,3S14.7,69.2,13,69.2z"/>
	<path class="st1" d="M85.1,38.5c-0.5-3.4-2.9-6.8-6.1-7.3H53.3c1.5-10.2,0.5-19.5-2.9-25.5c-1.9-3.3-4.6-5.1-7.2-5.5
		c-4.7-0.6-8.5,2.3-8.9,7.8c-0.4,11-1.8,17.7-8.2,27.3v43.2c0.7,0.6,1.4,1.1,2.2,1.5c1.7,1,3.5,1.6,6.1,1.8
		c5.1,0.5,13.5,0.1,32.8,0.2c0.5,0,0.9-0.2,1.2-0.5c3.9-3.2,5.6-6.2,6.3-9.6c0.4-0.1,0.7-0.3,1-0.7c2.9-3.6,4-7.8,3.3-11.4
		c0.3-0.1,0.5-0.3,0.7-0.6c3.4-4,4.1-9.1,2.9-12.9C84.5,44,85.4,41.2,85.1,38.5z"/>
</g>
</svg>
