<?xml version="1.0" encoding="utf-8"?>
<!-- Generator: Adobe Illustrator 23.0.1, SVG Export Plug-In . SVG Version: 6.00 Build 0)  -->
<svg version="1.1" id="Layer_1" xmlns="http://www.w3.org/2000/svg" xmlns:xlink="http://www.w3.org/1999/xlink" x="0px" y="0px"
	 viewBox="0 0 85.1 82.1" style="enable-background:new 0 0 85.1 82.1;" xml:space="preserve">
<style type="text/css">
	.st0{fill:#9A9A9A;}
</style>
<g transform="translate(0,-952.36218)">
	<path class="st0" d="M34.2,960.3c-0.4,11.5-1.9,18.3-9,28.5c-0.9-1.4-2.4-2.4-4.2-2.4H5c-2.7,0-5,2.3-5,5v36c0,2.7,2.3,5,5,5h16
		c1.7,0,3.3-0.9,4.2-2.2c1,0.8,2,1.6,3,2.2c1.7,1,3.5,1.6,6.1,1.8c5.1,0.5,13.5,0.1,32.8,0.2c0.4,0,0.9-0.2,1.2-0.5
		c3.9-3.2,5.6-6.2,6.3-9.6c0.4-0.1,0.7-0.3,1-0.7c2.9-3.6,4-7.8,3.3-11.4c0.3-0.1,0.5-0.3,0.7-0.6c3.4-4,4.1-9.1,2.9-12.9
		c2.1-2.5,2.9-5.3,2.6-8c-0.5-3.4-2.9-6.8-6.1-7.3H53.2c1.5-10.1,0.5-19.4-2.9-25.5c-1.8-3.3-4.5-5.1-7.2-5.5
		C38.4,951.8,34.7,954.8,34.2,960.3L34.2,960.3z M41.7,956.4c1.9-0.2,4.1,1.3,5.2,3.5C49.8,965,51,974.7,49,985
		c-0.2,1.2,0.8,2.4,2,2.4h27.4c1.5,0.8,2.5,2.1,2.7,3.8c0.2,1.6-0.5,3.5-2.1,5.2H65c-1.1,0-2,0.9-2,2s1,2,2,2h13.8
		c0.6,2.2,0.1,5.2-1.8,8H65c-1.1,0-2,0.9-2,2s1,2,2,2h9.8c0.6,2.2,0.1,5.1-1.8,8H65c-1.1,0-2,0.9-2,2s1,2,2,2h5.5
		c-0.6,2.1-1.7,3.8-4.3,6c-18.6-0.1-27.2,0.2-31.5-0.2c-2.2-0.2-3.2-0.6-4.4-1.2c-1-0.6-2.3-1.7-4.2-3.2v-31.2
		c9.3-11.8,11.8-21.8,12.3-34.1C38.8,957.7,40.2,956.6,41.7,956.4L41.7,956.4z M5,990.4h16c0.6,0,1,0.4,1,1v36c0,0.6-0.4,1-1,1H5
		c-0.6,0-1-0.4-1-1v-36C4,990.8,4.4,990.4,5,990.4L5,990.4z M13,1015.4c-1.7,0-3,1.3-3,3s1.3,3,3,3s3-1.3,3-3S14.7,1015.4,13,1015.4
		z"/>
</g>
</svg>
