<?xml version="1.0" encoding="utf-8"?>
<!-- Generator: Adobe Illustrator 22.0.1, SVG Export Plug-In . SVG Version: 6.00 Build 0)  -->
<svg version="1.1" id="Layer_1" xmlns="http://www.w3.org/2000/svg" xmlns:xlink="http://www.w3.org/1999/xlink" x="0px" y="0px"
	 viewBox="-11.5 1012.5 1024 1024" style="enable-background:new -11.5 1012.5 1024 1024;" xml:space="preserve">
<style type="text/css">
	.st0{fill:#77328B;stroke:#FFFFFF;stroke-width:10;stroke-miterlimit:10;}
</style>
<path class="st0" d="M513.1,1012.5c-194.8,0-352.7,157.9-352.7,352.7c0,182,295.8,593,330,639.3l22.8,32l22.8-32
	c34.1-46.3,330-457.3,330-639.3C865.8,1170.4,707.9,1012.5,513.1,1012.5z M513.1,1937.7c-70.1-100.2-294.7-432.6-294.7-572.5
	c0-162.7,131.9-294.7,294.7-294.7s294.7,131.9,294.7,294.7C807.7,1505.2,583.1,1837.5,513.1,1937.7z"/>
<path class="st0" d="M513.1,1159.2c-92.6,0-167.7,75.1-167.7,167.7c0,92.6,75.1,167.7,167.7,167.7s167.7-75.1,167.7-167.7l0,0
	C680.6,1234.3,605.6,1159.3,513.1,1159.2z M402.9,1326.9c0-60.8,49.3-110.1,110.1-110.1s110.1,49.3,110.1,110.1
	S573.9,1437,513.1,1437l0,0C452.3,1436.9,403,1387.7,402.9,1326.9z"/>
</svg>
