<svg id="Layer_1" data-name="Layer 1" xmlns="http://www.w3.org/2000/svg" viewBox="0 0 78 70.57"><defs><style>.cls-1{fill:#252776;stroke:#fff;stroke-miterlimit:10;}</style></defs><title>04</title><path class="cls-1" d="M87,60.51H83.64V18.22H87a1.5,1.5,0,1,0,0-3H13a1.5,1.5,0,0,0,0,3h3.36V60.51H13a1.5,1.5,0,1,0,0,3H48.5v9L39,82.23a1.5,1.5,0,0,0,0,2.12,1.48,1.48,0,0,0,1,.43,1.53,1.53,0,0,0,1.07-.44l7.39-7.51v6.45a1.5,1.5,0,0,0,3,0V76.83l7.39,7.51a1.53,1.53,0,0,0,1.07.44,1.48,1.48,0,0,0,1-.43,1.5,1.5,0,0,0,0-2.12L51.5,72.55v-9H87a1.5,1.5,0,0,0,0-3ZM19.36,18.22H80.64V60.51H19.36Z" transform="translate(-11 -14.72)"/><path class="cls-1" d="M75,53.83a1.5,1.5,0,0,0-1.5-1.5H65.59V31.75a1.5,1.5,0,0,0-3,0V52.33H56.2v-13a1.5,1.5,0,0,0-3,0v13H46.8V46a1.5,1.5,0,0,0-3,0v6.35H37.41v-3.5a1.5,1.5,0,0,0-3,0v3.5H26.52a1.5,1.5,0,1,0,0,3h47A1.5,1.5,0,0,0,75,53.83Z" transform="translate(-11 -14.72)"/><path class="cls-1" d="M26.52,27.17H42a1.5,1.5,0,0,0,0-3H26.52a1.5,1.5,0,1,0,0,3Z" transform="translate(-11 -14.72)"/><path class="cls-1" d="M26.52,33.25H42a1.5,1.5,0,0,0,0-3H26.52a1.5,1.5,0,1,0,0,3Z" transform="translate(-11 -14.72)"/></svg>