<svg id="Layer_1" data-name="Layer 1" xmlns="http://www.w3.org/2000/svg" viewBox="0 0 98.95 98.93"><defs><style>.cls-1{fill:#252776;stroke:#fff;stroke-miterlimit:10;stroke-width:0.25px;}</style></defs><title>06</title><path class="cls-1" d="M93.55,40.05h0l-6.24-1a38.7,38.7,0,0,0-3.12-7.53l3.64-5.19a7,7,0,0,0-.78-9L82.74,13a7,7,0,0,0-9-.78l-5.19,3.64A39.06,39.06,0,0,0,61,12.69L60,6.46a7,7,0,0,0-7-5.8H47a7,7,0,0,0-6.91,5.8L39,12.69a38.61,38.61,0,0,0-7.52,3.12l-5.19-3.64a7,7,0,0,0-9,.78L13,17.26a7,7,0,0,0-.78,9l3.64,5.19A39.06,39.06,0,0,0,12.69,39l-6.24,1a7,7,0,0,0-5.8,7v6a7,7,0,0,0,5.8,6.91L12.69,61a38.61,38.61,0,0,0,3.12,7.52l-3.64,5.19a7,7,0,0,0,.78,9l4.3,4.3a7,7,0,0,0,9,.78l5.19-3.64A38.49,38.49,0,0,0,39,87.31l1.09,6.24A7,7,0,0,0,47,99.34h6a7,7,0,0,0,6.91-5.8L61,87.31a38.7,38.7,0,0,0,7.53-3.12l5.19,3.64a7,7,0,0,0,9-.78l4.3-4.3a7,7,0,0,0,.78-9l-3.64-5.19A38.46,38.46,0,0,0,87.31,61l6.24-1.09A7,7,0,0,0,99.35,53V47A7,7,0,0,0,93.55,40.05Zm2.8,13A4,4,0,0,1,93,57l-7.17,1.26a1.51,1.51,0,0,0-1.19,1.09,35.52,35.52,0,0,1-3.56,8.57,1.51,1.51,0,0,0,.07,1.61l4.18,6a4,4,0,0,1-.45,5.14L80.58,85a4,4,0,0,1-5.14.45l-6-4.18a1.51,1.51,0,0,0-1.61-.07,35.93,35.93,0,0,1-8.57,3.56,1.51,1.51,0,0,0-1.09,1.19L57,93a4,4,0,0,1-4,3.32H47A4,4,0,0,1,43,93l-1.26-7.17a1.51,1.51,0,0,0-1.09-1.19,35.93,35.93,0,0,1-8.57-3.56,1.51,1.51,0,0,0-1.61.07l-6,4.18a4,4,0,0,1-5.14-.45L15,80.58a4,4,0,0,1-.45-5.14l4.18-6a1.51,1.51,0,0,0,.07-1.61,35.9,35.9,0,0,1-3.55-8.57,1.51,1.51,0,0,0-1.19-1.09L7,57a4,4,0,0,1-3.32-4V47A4,4,0,0,1,7,43l7.17-1.26a1.51,1.51,0,0,0,1.19-1.09,35.9,35.9,0,0,1,3.55-8.57,1.51,1.51,0,0,0-.07-1.61l-4.18-6a4,4,0,0,1,.45-5.14l4.3-4.3a4,4,0,0,1,5.14-.45l6,4.18a1.51,1.51,0,0,0,1.61.07,35.52,35.52,0,0,1,8.57-3.56,1.51,1.51,0,0,0,1.09-1.19L43,7a4,4,0,0,1,4-3.32h6A4,4,0,0,1,57,7l1.26,7.17a1.51,1.51,0,0,0,1.09,1.19,35.93,35.93,0,0,1,8.57,3.56,1.51,1.51,0,0,0,1.61-.07l6-4.18a4,4,0,0,1,5.14.45l4.3,4.3a4,4,0,0,1,.45,5.14l-4.18,6a1.51,1.51,0,0,0-.07,1.61,35.93,35.93,0,0,1,3.56,8.57,1.51,1.51,0,0,0,1.19,1.09L93,43a4,4,0,0,1,3.32,4ZM55.08,38.26H53.33A2.07,2.07,0,0,0,51.7,39L50,41.22,48.22,39a2.1,2.1,0,0,0-1.64-.79H44.92a6.39,6.39,0,0,0-6.39,6.39,6.28,6.28,0,0,0,0,.75l1.31,10a5.71,5.71,0,0,0,2.65,4.2l2.06,14a3.62,3.62,0,0,0,3.6,3.22H51.7a3.6,3.6,0,0,0,3.59-3.15l2.07-14a5.68,5.68,0,0,0,2.74-4.21l1.31-10v-.07a6.39,6.39,0,0,0-5.63-7.07,5.79,5.79,0,0,0-.72,0ZM58.45,45,57.13,55.07a2.72,2.72,0,0,1-1.69,2.2,1.5,1.5,0,0,0-.92,1.17l-2.19,14.8a.61.61,0,0,1-.62.54H48.2a.64.64,0,0,1-.62-.6L45.39,58.41a1.5,1.5,0,0,0-.9-1.16A2.69,2.69,0,0,1,42.86,55L41.55,45a3.39,3.39,0,0,1,3-3.76l.39,0h1.22l2.5,3.12A1.68,1.68,0,0,0,50,45h0a1.68,1.68,0,0,0,1.31-.65l2.5-3.12h1.31a3.39,3.39,0,0,1,3.35,3.43C58.47,44.77,58.46,44.89,58.45,45ZM50,37.59a7.19,7.19,0,1,0-7.19-7.19h0A7.19,7.19,0,0,0,50,37.59Zm0-11.37a4.19,4.19,0,1,1-4.19,4.19h0A4.2,4.2,0,0,1,50,26.22Z" transform="translate(-0.52 -0.53)"/></svg>