<?xml version="1.0" encoding="utf-8"?>
<!-- Generator: Adobe Illustrator 22.0.1, SVG Export Plug-In . SVG Version: 6.00 Build 0)  -->
<svg version="1.1" id="Layer_1" xmlns="http://www.w3.org/2000/svg" xmlns:xlink="http://www.w3.org/1999/xlink" x="0px" y="0px"
	 viewBox="0 0 500 500" style="enable-background:new 0 0 500 500;" xml:space="preserve">
<style type="text/css">
	.st0{fill:#11135C;}
</style>
<g>
	<g>
		<path class="st0" d="M232.8,180.3V76c0-5.7-3.4-7.9-7.9-3.4L171.6,127c-15.9,15.9-39.7-7.9-23.8-23.8l90.7-93
			c6.8-6.8,17-6.8,23.8,0l90.7,93C368.8,119,345,144,329.2,127l-54.4-54.4c-4.5-4.5-7.9-3.4-7.9,3.4v243.8l0,0V424
			c0,5.7,3.4,7.9,7.9,3.4L328,373c15.9-15.9,39.7,7.9,23.8,23.8l-90.7,93c-6.8,6.8-17,6.8-23.8,0l-90.7-93
			c-15.9-15.9,7.9-40.8,23.8-23.8l53.3,54.4c4.5,4.5,7.9,3.4,7.9-3.4L232.8,180.3L232.8,180.3L232.8,180.3z"/>
	</g>
</g>
</svg>
