<?xml version="1.0" encoding="utf-8"?>
<!-- Generator: Adobe Illustrator 22.0.1, SVG Export Plug-In . SVG Version: 6.00 Build 0)  -->
<svg version="1.1" id="Layer_1" xmlns="http://www.w3.org/2000/svg" xmlns:xlink="http://www.w3.org/1999/xlink" x="0px" y="0px"
	 viewBox="0 0 360 360" style="enable-background:new 0 0 360 360;" xml:space="preserve">
<style type="text/css">
	.st0{fill:#FFFFFF;}
</style>
<g>
	<g>
		<path class="st0" d="M75.9,265.4H21.1c-11.1,0-20.1-9-20.1-20.1V109.1C1,98,10,89,21.1,89h54.8c11.1,0,20.1,9,20.1,20.1v136.2
			C95.9,256.4,86.9,265.4,75.9,265.4z M28.1,238.2h40.7V116.2H28.1V238.2z"/>
	</g>
	<g>
		<path class="st0" d="M184.3,346.4c-4.5,0-8.9-1.5-12.6-4.5l-97.9-79.6l17.1-21.1l86.4,70.2V42.9l-86.4,70.2L73.8,92.1l97.9-79.5
			C177.8,7.6,186,6.6,193,10c7.1,3.4,11.4,10.3,11.4,18.1v298.2c0,7.8-4.4,14.8-11.4,18.1C190.2,345.7,187.3,346.4,184.3,346.4z"/>
	</g>
	<path class="st0" d="M226.6,135.4c-11.1-6.2-2.5-24.4,9.7-17.8c48.2,24.9,47.9,94.2,3.2,122.9c-11.8,8-21.7-9.7-11.5-16.9
		C260.6,204.1,261.4,153.3,226.6,135.4z"/>
	<path class="st0" d="M260.7,111.2c-11.1-6.2-0.2-23.6,10.5-16.2c55.8,33.9,56.8,127.2,3.9,165c-10.2,7.2-22.1-8.5-11.5-16.9
		C304.4,214.5,305.4,138.8,260.7,111.2z"/>
	<path class="st0" d="M297.2,87.7c-10.7-7.4-0.2-23.6,10.9-17.4c65.7,43.7,66.5,161.8,5,209.9c-10.2,7.2-22.1-8.5-11.9-15.7
		C350.9,224.4,351,123.6,297.2,87.7z"/>
</g>
</svg>
