<?xml version="1.0" encoding="utf-8"?>
<!-- Generator: Adobe Illustrator 22.0.1, SVG Export Plug-In . SVG Version: 6.00 Build 0)  -->
<svg version="1.1" id="Layer_1" xmlns="http://www.w3.org/2000/svg" xmlns:xlink="http://www.w3.org/1999/xlink" x="0px" y="0px"
	 viewBox="0 0 360 360" style="enable-background:new 0 0 360 360;" xml:space="preserve">
<style type="text/css">
	.st0{fill:#FFFFFF;}
</style>
<g>
	<g>
		<path class="st0" d="M74.9,268.4H20.1C9,268.4,0,259.4,0,248.3V112.1C0,101,9,92,20.1,92h54.8c11.1,0,20.1,9,20.1,20.1v136.2
			C94.9,259.4,85.9,268.4,74.9,268.4z M27.1,241.2h40.7V119.2H27.1V241.2z"/>
	</g>
	<g>
		<path class="st0" d="M183.3,349.4c-4.5,0-8.9-1.5-12.6-4.5l-97.9-79.6l17.1-21.1l86.4,70.2V45.9l-86.4,70.2L72.8,95.1l97.9-79.5
			c6.1-4.9,14.2-5.9,21.3-2.5c7.1,3.4,11.4,10.3,11.4,18.1v298.2c0,7.8-4.4,14.8-11.4,18.1C189.2,348.7,186.3,349.4,183.3,349.4z"/>
	</g>
	<g>
		<g>
			<path class="st0" d="M254.3,237.5c-3.5,0-6.9-1.3-9.6-4c-5.3-5.3-5.3-13.9,0-19.2l91.6-91.6c5.3-5.3,13.9-5.3,19.2,0
				c5.3,5.3,5.3,13.9,0,19.2l-91.6,91.6C261.3,236.2,257.8,237.5,254.3,237.5z"/>
		</g>
		<g>
			<path class="st0" d="M345.9,237.5c-3.5,0-6.9-1.3-9.6-4l-91.6-91.6c-5.3-5.3-5.3-13.9,0-19.2c5.3-5.3,13.9-5.3,19.2,0l91.6,91.6
				c5.3,5.3,5.3,13.9,0,19.2C352.8,236.2,349.3,237.5,345.9,237.5z"/>
		</g>
	</g>
</g>
</svg>
