<?xml version="1.0" encoding="utf-8"?>
<!-- Generator: Adobe Illustrator 23.0.0, SVG Export Plug-In . SVG Version: 6.00 Build 0)  -->
<svg version="1.1" id="Layer_1" xmlns="http://www.w3.org/2000/svg" xmlns:xlink="http://www.w3.org/1999/xlink" x="0px" y="0px"
	 viewBox="0 0 23.52 45" style="enable-background:new 0 0 23.52 45;" xml:space="preserve">
<style type="text/css">
	.st0{fill:#77328B;}
</style>
<g>
	<g>
		<path class="st0" d="M8.75,2C6.47,2,4.61,3.86,4.61,6.14v24.81l-0.08,0.07C2.95,32.3,2,34.26,2,36.25C2,39.97,5.03,43,8.75,43
			c3.7,0,6.71-3.03,6.71-6.75c0-2.01-0.93-3.97-2.49-5.23l-0.08-0.07V6.14C12.89,3.86,11.04,2,8.75,2z M8.75,41.95
			c-3.12,0-5.66-2.54-5.66-5.66c0-1.94,0.97-3.72,2.61-4.78V6.18c0-1.71,1.39-3.09,3.09-3.09c1.71,0,3.09,1.39,3.09,3.09v25.33
			c1.62,1.08,2.61,2.9,2.61,4.78C14.41,39.42,11.83,41.95,8.75,41.95z"/>
	</g>
</g>
<g>
	<path class="st0" d="M8.75,13.76c-0.62,0-1.13,0.51-1.13,1.13v17.8l-0.14,0.05c-1.5,0.56-2.47,1.93-2.47,3.5
		c0,2.07,1.68,3.75,3.75,3.75s3.75-1.68,3.75-3.75c0-1.57-0.97-2.94-2.47-3.5l-0.14-0.05V14.9C9.89,14.27,9.38,13.76,8.75,13.76z"/>
</g>
<g>
	<path class="st0" d="M14.85,7.49h6.67V6.44h-6.67V7.49z"/>
</g>
<g>
	<path class="st0" d="M14.85,12.41h2.92v-1.05h-2.92V12.41z"/>
</g>
<g>
	<path class="st0" d="M14.85,17.38h6.67v-1.05h-6.67V17.38z"/>
</g>
<g>
	<path class="st0" d="M14.85,22.3h2.92v-1.05h-2.92V22.3z"/>
</g>
<g>
	<path class="st0" d="M14.85,27.23h6.67v-1.05h-6.67V27.23z"/>
</g>
</svg>
